<!-- Generator: Adobe Illustrator 18.0.0, SVG Export Plug-In  -->
<svg version="1.1"
	 xmlns="http://www.w3.org/2000/svg" xmlns:xlink="http://www.w3.org/1999/xlink" xmlns:a="http://ns.adobe.com/AdobeSVGViewerExtensions/3.0/"
	 x="0px" y="0px" width="275.5px" height="301.4px" viewBox="0 0 275.5 301.4" enable-background="new 0 0 275.5 301.4"
	 xml:space="preserve">
<defs>
</defs>
<g>
	<path fill="#FFFFFF" d="M143.5,301.4c-72.8,0-132-59.2-132-132s59.2-132,132-132s132,59.2,132,132S216.2,301.4,143.5,301.4z
		 M143.5,53.4c-64,0-116,52-116,116s52,116,116,116s116-52,116-116S207.4,53.4,143.5,53.4z"/>
	<path fill="#0F0F0F" stroke="#FFFFFF" stroke-width="2" stroke-miterlimit="10" d="M248.5,156.1c2.8-3.7,4.4-9.2,4.4-15.5
		c0-8.9-3.1-16.1-8.1-18.7C244.7,121.8,103,66.1,103,66.1c-0.6-0.3-1.2-0.5-1.9-0.5c-0.7,0-1.3,0.2-1.9,0.5l-96,44.8
		C1.9,111.6,1,113,1,114.6c0,1.6,0.9,3,2.3,3.7l3.4,1.8c0.2,0.1,0.4,0.3,0.5,0.5c1,2,2.3,5.4,2.3,10.5c0,6.1-1.8,9.7-2.9,11.4
		C6.4,142.8,6,143,5.5,143c0,0-0.1,0-0.1,0c-0.1,0-0.2,0-0.3,0c-1.6,0-3,0.9-3.7,2.3c-0.5,1-0.6,2.1-0.3,3.2
		c0.3,1.1,1.1,1.9,2.1,2.4l3.4,1.8c0.2,0.1,0.4,0.3,0.5,0.5c1,2,2.3,5.4,2.3,10.5c0,4.4-1,8.6-2.9,11.4c-0.2,0.4-0.6,0.6-1.1,0.6
		c0,0-0.1,0-0.1,0c-0.1,0-0.2,0-0.3,0c-1.6,0-3,0.9-3.7,2.3c-0.5,1-0.6,2.1-0.3,3.2c0.3,1.1,1.1,1.9,2.1,2.4L143,241.8
		c0.6,0.3,1.2,0.5,1.9,0.5c0.7,0,1.3-0.2,1.9-0.5l95.3-49c0.1-0.1,0.2-0.1,0.3-0.1c6.1-1.2,10.4-9.2,10.4-19.5
		c0-6.3-1.6-11.8-4.4-15.5C248.2,157.2,248.2,156.6,248.5,156.1z M9.5,144.3c-0.1-0.3-0.1-0.7,0.1-1c1.8-3.2,2.8-7.6,2.8-12.3
		c0-1.9-0.2-3.9-0.6-6.1c-0.1-0.5,0.1-1,0.5-1.3c0.2-0.2,0.5-0.3,0.8-0.3c0.2,0,0.4,0,0.6,0.1L143,176.7c0.3,0.2,0.7,0.3,1,0.4
		c1.1,2.2,2.5,6,2.5,11.6c0,5.9-1.5,9.7-2.6,11.8L10.1,145.1C9.8,144.9,9.6,144.6,9.5,144.3z M10.1,177.6c-0.3-0.2-0.5-0.4-0.6-0.8
		c-0.1-0.3-0.1-0.7,0.1-1c1.8-3.2,2.8-7.6,2.8-12.3c0-1.9-0.2-3.9-0.6-6.1c-0.1-0.5,0.1-1,0.5-1.3c0.2-0.2,0.5-0.3,0.8-0.3
		c0.2,0,0.4,0,0.6,0.1l129.5,53.2c0.3,0.2,0.6,0.3,1,0.3c1.2,2.2,2.5,6,2.5,11.7c0,5.8-1.4,9.6-2.6,11.7L10.1,177.6z M241.9,184.2
		c-0.2,0.2-0.5,0.4-0.8,0.4c-0.1,0-0.2,0-0.3,0.1c-0.2,0-0.4,0.1-0.7,0.2c0,0-0.1,0-0.1,0l-0.2,0c-0.3,0.1-0.5,0.1-0.7,0.2
		c0,0-0.1,0-0.1,0.1c0,0-0.1,0-0.1,0l-91.5,47.1c1-2.5,1.9-6.1,1.9-11c0-5.5-1.2-9.5-2.4-12.1l92.5-47.6c0.2-0.1,0.4-0.1,0.6-0.1
		c0.2,0,0.4,0,0.5,0.1c0.2,0,0.4,0.1,0.5,0.2c1.5,0.8,3.6,5,3.6,11.4C244.6,179.7,242.4,183.6,241.9,184.2z M241.9,151.7
		c-0.2,0.2-0.5,0.4-0.8,0.4c-0.1,0-0.2,0-0.3,0.1c-0.1,0-0.3,0.1-0.5,0.1c-0.1,0-0.2,0.1-0.3,0.1l-0.1,0c-0.3,0.1-0.5,0.1-0.7,0.2
		c0,0-0.1,0-0.1,0.1c0,0-0.1,0-0.1,0l-91.5,47.1c1-2.5,2-6.1,2-11c0-5.5-1.2-9.5-2.4-12l92.5-47.6c0.2-0.1,0.4-0.1,0.6-0.1
		c0.1,0,0.1,0,0.2,0c0.1,0,0.2,0,0.3,0.1c0.2,0,0.4,0.1,0.5,0.2c1.5,0.9,3.6,5.1,3.6,11.4C244.6,147.1,242.4,151,241.9,151.7z"/>
	<path fill="#FFFFFF" d="M9.5,144.3c-0.1-0.3-0.1-0.7,0.1-1c1.8-3.2,2.8-7.6,2.8-12.3c0-1.9-0.2-3.9-0.6-6.1c-0.1-0.5,0.1-1,0.5-1.3
		c0.2-0.2,0.5-0.3,0.8-0.3c0.2,0,0.4,0,0.6,0.1L143,176.7c0.3,0.2,0.7,0.3,1,0.4c1.1,2.2,2.5,6,2.5,11.6c0,5.9-1.5,9.7-2.6,11.8
		L10.1,145.1C9.8,144.9,9.6,144.6,9.5,144.3z"/>
	<path fill="#FFFFFF" d="M10.1,177.6c-0.3-0.2-0.5-0.4-0.6-0.8c-0.1-0.3-0.1-0.7,0.1-1c1.8-3.2,2.8-7.6,2.8-12.3
		c0-1.9-0.2-3.9-0.6-6.1c-0.1-0.5,0.1-1,0.5-1.3c0.2-0.2,0.5-0.3,0.8-0.3c0.2,0,0.4,0,0.6,0.1l129.5,53.2c0.3,0.2,0.6,0.3,1,0.3
		c1.2,2.2,2.5,6,2.5,11.7c0,5.8-1.4,9.6-2.6,11.7L10.1,177.6z"/>
	<path fill="#FFFFFF" d="M241.9,184.2c-0.2,0.2-0.5,0.4-0.8,0.4c-0.1,0-0.2,0-0.3,0.1c-0.2,0-0.4,0.1-0.7,0.2c0,0-0.1,0-0.1,0
		l-0.2,0c-0.3,0.1-0.5,0.1-0.7,0.2c0,0-0.1,0-0.1,0.1c0,0-0.1,0-0.1,0l-91.5,47.1c1-2.5,1.9-6.1,1.9-11c0-5.5-1.2-9.5-2.4-12.1
		l92.5-47.6c0.2-0.1,0.4-0.1,0.6-0.1c0.2,0,0.4,0,0.5,0.1c0.2,0,0.4,0.1,0.5,0.2c1.5,0.8,3.6,5,3.6,11.4
		C244.6,179.7,242.4,183.6,241.9,184.2z"/>
	<path fill="#FFFFFF" d="M241.9,151.7c-0.2,0.2-0.5,0.4-0.8,0.4c-0.1,0-0.2,0-0.3,0.1c-0.1,0-0.3,0.1-0.5,0.1
		c-0.1,0-0.2,0.1-0.3,0.1l-0.1,0c-0.3,0.1-0.5,0.1-0.7,0.2c0,0-0.1,0-0.1,0.1c0,0-0.1,0-0.1,0l-91.5,47.1c1-2.5,2-6.1,2-11
		c0-5.5-1.2-9.5-2.4-12l92.5-47.6c0.2-0.1,0.4-0.1,0.6-0.1c0.1,0,0.1,0,0.2,0c0.1,0,0.2,0,0.3,0.1c0.2,0,0.4,0.1,0.5,0.2
		c1.5,0.9,3.6,5.1,3.6,11.4C244.6,147.1,242.4,151,241.9,151.7z"/>
	<path fill="#FFFFFF" d="M9.5,111.3c-0.1-0.3-0.1-0.7,0.1-1c1.8-3.2,2.8-7.6,2.8-12.3c0-1.9-0.2-3.9-0.6-6.1c-0.1-0.5,0.1-1,0.5-1.3
		c0.2-0.2,0.5-0.3,0.8-0.3c0.2,0,0.4,0,0.6,0.1L143,143.7c0.3,0.2,0.7,0.3,1,0.4c1.1,2.2,2.5,6,2.5,11.6c0,5.9-1.5,9.7-2.6,11.8
		L10.1,112.1C9.8,111.9,9.6,111.6,9.5,111.3z"/>
	<path fill="#FFFFFF" d="M241.9,118.7c-0.2,0.2-0.5,0.4-0.8,0.4c-0.1,0-0.2,0-0.3,0.1c-0.1,0-0.3,0.1-0.5,0.1
		c-0.1,0-0.2,0.1-0.3,0.1l-0.1,0c-0.3,0.1-0.5,0.1-0.7,0.2c0,0-0.1,0-0.1,0.1c0,0-0.1,0-0.1,0l-91.5,47.1c1-2.5,2-6.1,2-11
		c0-5.5-1.2-9.5-2.4-12l92.5-47.6c0.2-0.1,0.4-0.1,0.6-0.1c0.1,0,0.1,0,0.2,0c0.1,0,0.2,0,0.3,0.1c0.2,0,0.4,0.1,0.5,0.2
		c1.5,0.9,3.6,5.1,3.6,11.4C244.6,114.1,242.4,118,241.9,118.7z"/>
	<path fill="#0F0F0F" stroke="#FFFFFF" stroke-width="2" stroke-miterlimit="10" d="M248.5,91.5c2.8-3.7,4.4-9.2,4.4-15.5
		c0-8.9-3.1-16.1-8.1-18.7C244.7,57.2,103,1.5,103,1.5c-0.6-0.3-1.2-0.5-1.9-0.5c-0.7,0-1.3,0.2-1.9,0.5l-96,44.8
		C1.9,47,1,48.4,1,50c0,1.6,0.9,3,2.3,3.7l3.4,1.8c0.2,0.1,0.4,0.3,0.5,0.5c1,2,2.3,5.4,2.3,10.5c0,6.1-1.8,9.7-2.9,11.4
		c-0.2,0.4-0.6,0.6-1.1,0.6c0,0-0.1,0-0.1,0c-0.1,0-0.2,0-0.3,0c-1.6,0-3,0.9-3.7,2.3c-0.5,1-0.6,2.1-0.3,3.2
		c0.3,1.1,1.1,1.9,2.1,2.4L6.7,88c0.2,0.1,0.4,0.3,0.5,0.5c1,2,2.3,5.4,2.3,10.5c0,4.4-1,8.6-2.9,11.4C6.4,110.7,6,111,5.5,111
		c0,0-0.1,0-0.1,0c-0.1,0-0.2,0-0.3,0c-1.6,0-3,0.9-3.7,2.3c-0.5,1-0.6,2.1-0.3,3.2c0.3,1.1,1.1,1.9,2.1,2.4L143,177.2
		c0.6,0.3,1.2,0.5,1.9,0.5c0.7,0,1.3-0.2,1.9-0.5l95.3-49c0.1-0.1,0.2-0.1,0.3-0.1c6.1-1.2,10.4-9.2,10.4-19.5
		c0-6.3-1.6-11.8-4.4-15.5C248.2,92.6,248.2,92,248.5,91.5z M9.5,79.7c-0.1-0.3-0.1-0.7,0.1-1c1.8-3.2,2.8-7.6,2.8-12.3
		c0-1.9-0.2-3.9-0.6-6.1c-0.1-0.5,0.1-1,0.5-1.3c0.2-0.2,0.5-0.3,0.8-0.3c0.2,0,0.4,0,0.6,0.1L143,112.1c0.3,0.2,0.7,0.3,1,0.4
		c1.1,2.2,2.5,6,2.5,11.6c0,5.9-1.5,9.7-2.6,11.8L10.1,80.4C9.8,80.3,9.6,80,9.5,79.7z M10.1,113c-0.3-0.2-0.5-0.4-0.6-0.8
		c-0.1-0.3-0.1-0.7,0.1-1c1.8-3.2,2.8-7.6,2.8-12.3c0-1.9-0.2-3.9-0.6-6.1c-0.1-0.5,0.1-1,0.5-1.3c0.2-0.2,0.5-0.3,0.8-0.3
		c0.2,0,0.4,0,0.6,0.1l129.5,53.2c0.3,0.2,0.6,0.3,1,0.3c1.2,2.2,2.5,6,2.5,11.7c0,5.8-1.4,9.6-2.6,11.7L10.1,113z M241.9,119.6
		c-0.2,0.2-0.5,0.4-0.8,0.4c-0.1,0-0.2,0-0.3,0.1c-0.2,0-0.4,0.1-0.7,0.2c0,0-0.1,0-0.1,0l-0.2,0c-0.3,0.1-0.5,0.1-0.7,0.2
		c0,0-0.1,0-0.1,0.1c0,0-0.1,0-0.1,0l-91.5,47.1c1-2.5,1.9-6.1,1.9-11c0-5.5-1.2-9.5-2.4-12.1l92.5-47.6c0.2-0.1,0.4-0.1,0.6-0.1
		c0.2,0,0.4,0,0.5,0.1c0.2,0,0.4,0.1,0.5,0.2c1.5,0.8,3.6,5,3.6,11.4C244.6,115,242.4,119,241.9,119.6z M241.9,87
		c-0.2,0.2-0.5,0.4-0.8,0.4c-0.1,0-0.2,0-0.3,0.1c-0.1,0-0.3,0.1-0.5,0.1c-0.1,0-0.2,0.1-0.3,0.1l-0.1,0c-0.3,0.1-0.5,0.1-0.7,0.2
		c0,0-0.1,0-0.1,0.1c0,0-0.1,0-0.1,0l-91.5,47.1c1-2.5,2-6.1,2-11c0-5.5-1.2-9.5-2.4-12l92.5-47.6c0.2-0.1,0.4-0.1,0.6-0.1
		c0.1,0,0.1,0,0.2,0c0.1,0,0.2,0,0.3,0.1c0.2,0,0.4,0.1,0.5,0.2c1.5,0.9,3.6,5.1,3.6,11.4C244.6,82.5,242.4,86.4,241.9,87z"/>
	<path fill="#FFFFFF" d="M9.5,79.7c-0.1-0.3-0.1-0.7,0.1-1c1.8-3.2,2.8-7.6,2.8-12.3c0-1.9-0.2-3.9-0.6-6.1c-0.1-0.5,0.1-1,0.5-1.3
		c0.2-0.2,0.5-0.3,0.8-0.3c0.2,0,0.4,0,0.6,0.1L143,112.1c0.3,0.2,0.7,0.3,1,0.4c1.1,2.2,2.5,6,2.5,11.6c0,5.9-1.5,9.7-2.6,11.8
		L10.1,80.4C9.8,80.3,9.6,80,9.5,79.7z"/>
	<path fill="#FFFFFF" d="M241.9,87c-0.2,0.2-0.5,0.4-0.8,0.4c-0.1,0-0.2,0-0.3,0.1c-0.1,0-0.3,0.1-0.5,0.1c-0.1,0-0.2,0.1-0.3,0.1
		l-0.1,0c-0.3,0.1-0.5,0.1-0.7,0.2c0,0-0.1,0-0.1,0.1c0,0-0.1,0-0.1,0l-91.5,47.1c1-2.5,2-6.1,2-11c0-5.5-1.2-9.5-2.4-12l92.5-47.6
		c0.2-0.1,0.4-0.1,0.6-0.1c0.1,0,0.1,0,0.2,0c0.1,0,0.2,0,0.3,0.1c0.2,0,0.4,0.1,0.5,0.2c1.5,0.9,3.6,5.1,3.6,11.4
		C244.6,82.5,242.4,86.4,241.9,87z"/>
</g>
</svg>