<!-- Generator: Adobe Illustrator 18.0.0, SVG Export Plug-In  -->
<svg version="1.1"
	 xmlns="http://www.w3.org/2000/svg" xmlns:xlink="http://www.w3.org/1999/xlink" xmlns:a="http://ns.adobe.com/AdobeSVGViewerExtensions/3.0/"
	 x="0px" y="0px" width="372.8px" height="333px" viewBox="0 0 372.8 333" enable-background="new 0 0 372.8 333"
	 xml:space="preserve">
<defs>
</defs>
<g>
	<path fill="#FFFFFF" d="M178.5,333c-72.8,0-132-59.2-132-132s59.2-132,132-132s132,59.2,132,132S251.3,333,178.5,333z M178.5,85
		c-64,0-116,52-116,116s52,116,116,116s116-52,116-116S242.5,85,178.5,85z"/>
	<g>
		<path fill="#231F20" d="M188.3,98.3c0-44.5-40.9-80.5-91.5-80.5S5.4,53.8,5.4,98.3c0,43.8,39.7,79.4,89.2,80.5l64.9,53.3l4.8,4
			l-22.5-67.7C169.6,154.5,188.3,128.3,188.3,98.3z"/>
		<path fill="#FFFFFF" d="M175.5,252.1l-82.8-68c-24.5-0.9-47.5-10-64.8-25.5C9.9,142.4,0,121,0,98.3c0-47.4,43.5-85.9,96.9-85.9
			s96.9,38.5,96.9,85.9c0,29.6-17.2,57-45.2,72.7L175.5,252.1z M96.9,23.2c-47.4,0-86,33.7-86,75.1c0,19.6,8.6,38.2,24.3,52.2
			c15.8,14.2,37,22.3,59.7,22.8l1.9,0l56.8,46.6l-18.1-54.4l4.2-2.1c26.8-13.4,43.4-38.4,43.4-65.2C182.9,56.9,144.3,23.2,96.9,23.2
			z"/>
	</g>
	<g>
		<g>
			<path fill="#231F20" d="M337.4,5.4h-140c-16.6,0-30,13.4-30,30v123.3c0,16.6,13.4,30,30,30h40.5c-16.2,29.9-44.4,81.1-49.2,86.3
				l91.3-86.3h57.5c16.6,0,30-13.4,30-30V35.4C367.4,18.8,354,5.4,337.4,5.4z"/>
			<path fill="#FFFFFF" d="M192.4,278.9l-7.7-7.6c2.4-2.5,15.2-24.3,44-77.2h-31.4c-19.5,0-35.4-15.9-35.4-35.4V35.4
				C162,15.9,177.9,0,197.4,0h140c19.5,0,35.4,15.9,35.4,35.4v123.3c0,19.5-15.9,35.4-35.4,35.4h-55.3L192.4,278.9z M197.4,10.8
				c-13.6,0-24.6,11-24.6,24.6v123.3c0,13.6,11,24.6,24.6,24.6H247l-4.3,8c-11.7,21.5-21.3,39-29,52.7l64.2-60.7h59.6
				c13.6,0,24.6-11,24.6-24.6V35.4c0-13.6-11-24.6-24.6-24.6H197.4z"/>
		</g>
		<g>
			<path fill="#231F20" d="M188.7,275l-0.4,0.3C188.4,275.3,188.5,275.1,188.7,275z"/>
			<path fill="#FFFFFF" d="M191.5,279.7l-6.9-8.3l0.4-0.3l0,0c-0.1,0.1-0.2,0.1-0.3,0.2l2.1,2l-1-1.3l6.8,6.7
				C192.2,279.1,191.9,279.4,191.5,279.7z"/>
		</g>
	</g>
	<g>
		<g>
			<line fill="none" stroke="#FFFFFF" stroke-width="7.6497" stroke-miterlimit="10" x1="38.4" y1="67.8" x2="49.9" y2="67.8"/>
			
				<line fill="none" stroke="#FFFFFF" stroke-width="7.6497" stroke-miterlimit="10" stroke-dasharray="25.7288,12.8644" x1="62.8" y1="67.8" x2="133.5" y2="67.8"/>
			<line fill="none" stroke="#FFFFFF" stroke-width="7.6497" stroke-miterlimit="10" x1="139.9" y1="67.8" x2="151.4" y2="67.8"/>
		</g>
	</g>
	<g>
		<g>
			<line fill="none" stroke="#FFFFFF" stroke-width="7.6497" stroke-miterlimit="10" x1="38.4" y1="120.9" x2="49.9" y2="120.9"/>
			
				<line fill="none" stroke="#FFFFFF" stroke-width="7.6497" stroke-miterlimit="10" stroke-dasharray="25.7288,12.8644" x1="62.8" y1="120.9" x2="133.5" y2="120.9"/>
			<line fill="none" stroke="#FFFFFF" stroke-width="7.6497" stroke-miterlimit="10" x1="139.9" y1="120.9" x2="151.4" y2="120.9"/>
		</g>
	</g>
	<g>
		<g>
			<line fill="none" stroke="#FFFFFF" stroke-width="7.0841" stroke-miterlimit="10" x1="54.5" y1="147.9" x2="65.1" y2="147.9"/>
			
				<line fill="none" stroke="#FFFFFF" stroke-width="7.0841" stroke-miterlimit="10" stroke-dasharray="17.8298,8.9149" x1="74" y1="147.9" x2="123.1" y2="147.9"/>
			<line fill="none" stroke="#FFFFFF" stroke-width="7.0841" stroke-miterlimit="10" x1="127.5" y1="147.9" x2="138.2" y2="147.9"/>
		</g>
	</g>
	<g>
		<g>
			<line fill="none" stroke="#FFFFFF" stroke-width="8.653" stroke-miterlimit="10" x1="17.4" y1="93.9" x2="30.4" y2="93.9"/>
			
				<line fill="none" stroke="#FFFFFF" stroke-width="8.653" stroke-miterlimit="10" stroke-dasharray="23.7256,11.8628" x1="42.3" y1="93.9" x2="143.1" y2="93.9"/>
			<line fill="none" stroke="#FFFFFF" stroke-width="8.653" stroke-miterlimit="10" x1="149" y1="93.9" x2="162" y2="93.9"/>
		</g>
	</g>
	<g>
		<g>
			<line fill="none" stroke="#FFFFFF" stroke-width="8.653" stroke-miterlimit="10" x1="215.4" y1="35.3" x2="228.4" y2="35.3"/>
			
				<line fill="none" stroke="#FFFFFF" stroke-width="8.653" stroke-miterlimit="10" stroke-dasharray="25.1545,12.5773" x1="241" y1="35.3" x2="310.1" y2="35.3"/>
			<line fill="none" stroke="#FFFFFF" stroke-width="8.653" stroke-miterlimit="10" x1="316.4" y1="35.3" x2="329.4" y2="35.3"/>
		</g>
	</g>
	<g>
		<g>
			<line fill="none" stroke="#FFFFFF" stroke-width="8.653" stroke-miterlimit="10" x1="197.7" y1="64.8" x2="210.7" y2="64.8"/>
			
				<line fill="none" stroke="#FFFFFF" stroke-width="8.653" stroke-miterlimit="10" stroke-dasharray="23.7256,11.8628" x1="222.6" y1="64.8" x2="323.4" y2="64.8"/>
			<line fill="none" stroke="#FFFFFF" stroke-width="8.653" stroke-miterlimit="10" x1="329.3" y1="64.8" x2="342.3" y2="64.8"/>
		</g>
	</g>
	<g>
		<g>
			<line fill="none" stroke="#FFFFFF" stroke-width="8.653" stroke-miterlimit="10" x1="215.4" y1="95.9" x2="228.4" y2="95.9"/>
			
				<line fill="none" stroke="#FFFFFF" stroke-width="8.653" stroke-miterlimit="10" stroke-dasharray="25.1545,12.5773" x1="241" y1="95.9" x2="310.1" y2="95.9"/>
			<line fill="none" stroke="#FFFFFF" stroke-width="8.653" stroke-miterlimit="10" x1="316.4" y1="95.9" x2="329.4" y2="95.9"/>
		</g>
	</g>
	<g>
		<g>
			<line fill="none" stroke="#FFFFFF" stroke-width="8.653" stroke-miterlimit="10" x1="197.7" y1="128.5" x2="210.7" y2="128.5"/>
			
				<line fill="none" stroke="#FFFFFF" stroke-width="8.653" stroke-miterlimit="10" stroke-dasharray="23.7256,11.8628" x1="222.6" y1="128.5" x2="323.4" y2="128.5"/>
			<line fill="none" stroke="#FFFFFF" stroke-width="8.653" stroke-miterlimit="10" x1="329.3" y1="128.5" x2="342.3" y2="128.5"/>
		</g>
	</g>
	<g>
		<g>
			<line fill="none" stroke="#FFFFFF" stroke-width="8.653" stroke-miterlimit="10" x1="215.4" y1="159.5" x2="228.4" y2="159.5"/>
			
				<line fill="none" stroke="#FFFFFF" stroke-width="8.653" stroke-miterlimit="10" stroke-dasharray="26.8688,13.4344" x1="241.8" y1="159.5" x2="315.7" y2="159.5"/>
			<line fill="none" stroke="#FFFFFF" stroke-width="8.653" stroke-miterlimit="10" x1="322.4" y1="159.5" x2="335.4" y2="159.5"/>
		</g>
	</g>
</g>
</svg>