<!-- Generator: Adobe Illustrator 18.0.0, SVG Export Plug-In  -->
<svg version="1.1"
	 xmlns="http://www.w3.org/2000/svg" xmlns:xlink="http://www.w3.org/1999/xlink" xmlns:a="http://ns.adobe.com/AdobeSVGViewerExtensions/3.0/"
	 x="0px" y="0px" width="264px" height="299.5px" viewBox="0 0 264 299.5" enable-background="new 0 0 264 299.5"
	 xml:space="preserve">
<defs>
</defs>
<g>
	<path fill="#FFFFFF" d="M132,299.5c-72.8,0-132-59.2-132-132s59.2-132,132-132s132,59.2,132,132S204.8,299.5,132,299.5z M132,51.5
		c-64,0-116,52-116,116s52,116,116,116s116-52,116-116S196,51.5,132,51.5z"/>
	<path fill="#FFFFFF" d="M132,283.5c49.1,0,91.3-30.7,108.1-74c-11.6-5.7-23.1-11.3-27.7-13.5c-7.5-3.6-28-14.3-28-14.3
		s-1-17.3-7-18.3l1-11.7c0,0,7-16.3,7-26.4c0,0,7,6.1,9.5-7.6c2.5-13.7,6-39.1-5-33c0,0,0.9-8,1.1-17c0.1-5.3-0.1-10.9-0.8-15.5
		C188.3,40.1,178,2.5,132,2.5S75.7,40.1,73.7,52.2c-0.7,4.5-0.9,10.2-0.8,15.5c0.2,9,1.1,17,1.1,17c-11-6.1-7.5,19.3-5,33
		c2.5,13.7,9.5,7.6,9.5,7.6c0,10.2,7,26.4,7,26.4l1,11.7c-6,1-7,18.3-7,18.3s-20.5,10.7-28,14.3c-4.6,2.2-16.1,7.8-27.7,13.5
		C40.7,252.8,82.9,283.5,132,283.5"/>
	<path fill="#231F20" d="M25,211.8l-2.2-4.5c10.9-5.4,23-11.3,27.7-13.5c6.3-3,22.1-11.2,26.6-13.6c0.4-4.9,1.8-15.2,6.7-18.3
		l-0.8-9.5c-1-2.3-5.7-13.9-6.8-23.3c-1,0.2-2.1,0.2-3.3-0.3c-3.2-1.1-5.3-4.6-6.4-10.7c-5.1-27.7-1.7-33.7,1.2-35.8
		c0.8-0.6,1.9-1.1,3.4-1c-0.3-3.2-0.6-8.2-0.7-13.5c-0.1-6.5,0.2-11.8,0.8-15.9C73.3,39.7,83.6,0,132,0c48.4,0,58.7,39.7,60.7,51.8
		c0.7,4.1,1,9.5,0.8,15.9c-0.1,5.4-0.4,10.3-0.7,13.5c1.5,0,2.6,0.5,3.4,1c2.9,2.1,6.2,8.1,1.2,35.8c-1.1,6-3.2,9.5-6.4,10.7
		c-1.2,0.4-2.3,0.4-3.3,0.3c-1.1,9.4-5.8,21-6.8,23.3l-0.8,9.6c2.5,1.7,5.8,6.2,6.7,18.3c4.5,2.4,20.3,10.6,26.6,13.6
		c4.7,2.2,16.8,8.2,27.7,13.5l-2.2,4.5c-10.9-5.4-22.9-11.3-27.6-13.5c-7.5-3.5-27.2-13.9-28.1-14.3l-1.3-0.7l-0.1-1.4
		c-0.4-7.2-2.6-15.6-4.9-16l-2.3-0.4l1.2-14.4l0.2-0.4c0.1-0.2,6.8-15.9,6.8-25.4v-5.5l4.1,3.6c0.3,0.3,1.4,1,2.3,0.7
		c0.5-0.2,2.1-1.2,3.1-6.8c4.9-27,1.3-30.6,0.8-30.9c-0.5-0.4-1.8,0.3-2.1,0.5l-4.2,2.3l0.5-4.8c0-0.1,0.9-8,1-16.8
		c0.1-6.2-0.1-11.2-0.8-15C186,41.5,176.5,5,132,5C87.5,5,78,41.5,76.2,52.7c-0.6,3.8-0.9,8.9-0.8,15c0.2,8.8,1,16.7,1,16.8l0.5,4.8
		l-4.2-2.3c-0.4-0.2-1.7-0.9-2.1-0.5c-0.4,0.3-4.1,3.8,0.8,30.9c1,5.7,2.7,6.7,3.2,6.8c1,0.3,2.2-0.7,2.2-0.7l4.1-3.6v5.5
		c0,9.5,6.7,25.3,6.8,25.4l0.2,0.4l1.2,14.4l-2.3,0.4c-2.3,0.4-4.5,8.8-4.9,16l-0.1,1.4l-1.3,0.7c-0.8,0.4-20.6,10.8-28.1,14.3
		C48,200.5,35.9,206.4,25,211.8z"/>
</g>
</svg>